<svg width="13" height="24" viewBox="0 0 13 24" fill="none" xmlns="http://www.w3.org/2000/svg">
<path d="M0.740635 0.597818C0.435994 0.933805 0.264856 1.38944 0.264856 1.86453C0.264856 2.33961 0.435994 2.79525 0.740635 3.13123L8.78438 12L0.740635 20.8687C0.444628 21.2066 0.280837 21.6592 0.284539 22.129C0.288241 22.5988 0.459141 23.0481 0.760429 23.3803C1.06172 23.7125 1.46929 23.9009 1.89536 23.905C2.32143 23.9091 2.7319 23.7285 3.03838 23.4022L12.231 13.2667C12.5356 12.9307 12.7068 12.4751 12.7068 12C12.7068 11.5249 12.5356 11.0693 12.231 10.7333L3.03838 0.597818C2.73365 0.261932 2.3204 0.0732422 1.88951 0.0732422C1.45862 0.0732422 1.04537 0.261932 0.740635 0.597818Z" fill="#00BCE7"/>
</svg>
